<?xml version="1.0" standalone="no"?>
<!DOCTYPE svg PUBLIC "-//W3C//DTD SVG 20010904//EN"
 "http://www.w3.org/TR/2001/REC-SVG-20010904/DTD/svg10.dtd">
<svg version="1.0" xmlns="http://www.w3.org/2000/svg"
 width="1024.000000pt" height="1024.000000pt" viewBox="0 0 1024.000000 1024.000000"
 preserveAspectRatio="xMidYMid meet">
<metadata>
Created by potrace 1.16, written by Peter Selinger 2001-2019
</metadata>
<g transform="translate(0.000000,1024.000000) scale(0.100000,-0.100000)"
fill="#000000" stroke="none">
<path d="M0 5120 l0 -5120 5120 0 5120 0 0 5120 0 5120 -5120 0 -5120 0 0
-5120z m5485 3519 c424 -38 858 -165 1260 -369 356 -181 658 -400 929 -675
282 -286 502 -595 676 -950 325 -663 419 -1471 258 -2210 -90 -417 -254 -803
-491 -1160 -373 -561 -883 -992 -1520 -1282 -314 -144 -641 -239 -992 -289
-151 -21 -574 -30 -761 -15 -442 34 -851 147 -1259 346 -598 293 -1077 715
-1438 1265 -494 756 -666 1687 -477 2582 110 521 333 993 665 1408 348 436
731 748 1215 991 442 222 898 342 1415 373 88 5 393 -3 520 -15z"/>
<path d="M4865 8404 c-16 -2 -73 -9 -125 -15 -134 -15 -404 -72 -543 -114
-375 -114 -746 -301 -1062 -535 -121 -89 -169 -131 -309 -268 -649 -637 -986
-1430 -986 -2316 0 -617 180 -1214 522 -1736 121 -186 242 -334 419 -514 142
-144 170 -168 190 -163 13 3 94 37 179 75 338 153 848 297 1315 372 738 118
1234 138 1604 65 41 -9 76 -13 78 -11 3 3 -12 33 -32 67 -96 164 -127 385 -79
570 l14 57 -49 148 c-28 82 -71 216 -96 298 l-46 149 31 64 c16 35 30 77 30
93 0 25 -51 426 -91 718 -6 46 -9 85 -6 88 2 3 30 -5 61 -16 61 -23 61 -23 70
-120 3 -30 24 -196 48 -369 l42 -313 -23 -62 c-13 -33 -26 -73 -28 -88 -5 -27
114 -408 127 -408 4 0 12 10 17 23 21 47 114 147 178 192 l65 47 0 142 c0 174
17 245 80 334 23 34 44 62 45 62 6 0 35 -101 35 -120 0 -11 -10 -40 -22 -63
-21 -39 -23 -57 -26 -242 l-4 -200 -51 -32 c-201 -122 -307 -323 -308 -578 0
-198 86 -371 244 -496 87 -68 131 -92 237 -126 70 -22 104 -27 195 -27 228 -2
386 62 534 213 35 36 68 65 73 63 5 -1 7 2 3 8 -4 6 2 25 13 43 62 101 95 271
81 412 -20 197 -129 369 -315 495 l-71 48 -6 177 c-6 157 -9 183 -30 229 -42
91 -123 152 -218 163 -43 5 -50 9 -55 32 -18 83 -72 201 -137 299 -89 135
-255 300 -402 399 -90 60 -88 55 -60 158 44 157 36 224 -48 420 -14 33 -60
157 -103 275 -100 281 -187 494 -219 536 -31 41 -158 105 -295 148 -60 20
-110 43 -134 62 l-38 32 32 63 c18 35 34 65 35 67 4 5 74 -36 128 -77 29 -21
68 -44 87 -51 90 -34 211 -103 251 -142 62 -60 114 -175 254 -569 64 -179 128
-348 177 -469 20 -48 21 -181 4 -265 l-17 -80 23 -18 c13 -10 51 -39 85 -65
136 -106 257 -233 331 -347 49 -76 112 -199 131 -255 10 -31 20 -38 83 -64 55
-22 86 -43 133 -91 87 -87 97 -119 103 -327 l4 -167 38 -25 c62 -41 169 -145
216 -211 107 -151 149 -283 149 -475 0 -153 -14 -210 -89 -355 -54 -105 -187
-241 -296 -302 -142 -79 -321 -122 -460 -108 -91 8 -208 34 -250 55 -19 9 -47
20 -61 23 -14 4 -59 29 -101 56 -65 43 -90 53 -174 70 -507 103 -1348 -4
-1999 -254 -292 -113 -611 -278 -773 -401 l-42 -32 97 -59 c104 -63 133 -77
133 -64 0 7 15 17 165 113 96 62 292 168 309 168 3 0 42 17 88 39 194 89 467
180 709 235 270 61 797 114 1028 102 197 -10 395 -46 253 -46 -96 0 -426 -62
-602 -114 -140 -41 -341 -111 -445 -156 -242 -103 -567 -286 -685 -386 -14
-12 -66 -56 -116 -97 -96 -80 -120 -104 -112 -113 5 -4 164 -50 215 -61 18 -4
41 11 104 71 78 74 205 169 334 251 106 67 346 183 488 234 243 89 593 165
732 160 84 -3 144 7 265 46 361 117 630 136 880 62 l75 -22 -40 -7 c-22 -4
-76 -7 -121 -7 -215 -2 -505 -64 -747 -160 -263 -104 -451 -217 -622 -375 -32
-30 -64 -52 -69 -49 -5 4 -6 1 -1 -6 4 -8 -4 -25 -22 -44 -38 -40 -126 -155
-142 -185 -15 -27 -21 -27 143 2 128 23 129 23 159 62 54 69 210 219 280 267
237 164 529 278 825 322 112 17 225 18 215 2 -9 -15 46 22 127 86 266 207 581
589 778 942 192 344 331 798 373 1218 17 177 7 576 -20 752 -75 489 -230 893
-496 1295 -318 481 -728 849 -1255 1128 -354 187 -752 307 -1185 357 -117 14
-518 19 -610 9z m380 -76 c95 -20 173 -73 252 -171 13 -16 31 -27 47 -27 41 0
178 -47 226 -78 112 -72 181 -180 201 -316 6 -42 9 -79 6 -82 -2 -3 -31 6 -63
19 l-59 23 -6 50 c-4 27 -13 63 -22 80 -26 49 -96 114 -151 140 -53 24 -177
54 -225 54 -21 0 -29 7 -39 33 -58 160 -320 224 -519 126 -75 -36 -119 -85
-149 -165 -21 -56 -24 -59 -68 -70 -86 -22 -194 -81 -246 -134 -47 -48 -90
-134 -90 -180 0 -14 -11 -21 -42 -28 -24 -5 -51 -13 -60 -17 -22 -9 -23 6 -4
97 17 78 34 114 88 186 46 62 145 130 239 165 56 21 67 29 89 68 42 75 79 117
141 158 121 81 283 106 454 69z m-74 -219 c34 -8 64 -23 90 -46 22 -20 39 -38
39 -42 0 -10 -84 -7 -92 4 -5 6 -8 6 -8 -1 0 -7 -44 -14 -122 -18 -68 -4 -143
-11 -168 -16 -25 -5 -47 -6 -49 -4 -11 11 28 58 68 82 81 48 154 60 242 41z
m300 -203 c47 -8 109 -24 137 -36 55 -24 122 -88 122 -117 0 -14 -3 -13 -16 5
-32 46 -142 86 -271 99 -167 17 -503 2 -484 -21 7 -8 5 -12 -7 -13 -78 -7
-192 -43 -347 -108 -11 -5 -24 -9 -30 -10 -5 0 -16 -4 -24 -9 -10 -6 -12 -5
-7 3 4 6 21 18 38 27 16 8 28 17 26 20 -8 7 -82 -34 -110 -61 -43 -40 -33 -10
13 40 81 87 278 154 554 188 79 10 328 6 406 -7z m1479 -208 c0 -11 6 -46 14
-77 8 -31 24 -107 37 -168 12 -62 27 -113 32 -113 11 0 88 76 165 164 28 33
54 57 57 54 3 -3 -6 -58 -20 -122 -34 -160 -35 -155 23 -149 26 3 62 9 80 13
17 5 32 7 32 5 0 -1 -9 -22 -20 -46 -24 -54 -27 -94 -5 -85 9 3 43 13 77 21
33 9 78 23 100 32 21 8 41 13 44 11 2 -3 -35 -53 -82 -112 -50 -62 -83 -111
-78 -116 5 -5 88 -20 184 -35 96 -15 179 -30 183 -34 4 -4 -18 -13 -50 -20
-99 -21 -295 -71 -304 -77 -8 -5 31 -44 44 -44 3 0 63 -28 133 -62 l129 -63
-165 -3 c-154 -2 -166 -3 -183 -23 -17 -21 -16 -23 26 -68 41 -44 157 -194
157 -203 0 -2 -62 26 -137 64 -76 37 -143 68 -149 68 -6 0 -21 -11 -33 -24
l-22 -24 20 -73 c32 -112 71 -286 71 -311 0 -17 -11 -7 -43 42 -47 72 -110
178 -151 256 l-28 51 -39 -10 c-30 -7 -39 -14 -39 -31 -1 -52 -49 -508 -56
-535 -3 -8 -7 -12 -10 -9 -8 9 -44 316 -51 441 -6 108 -8 119 -27 127 -60 22
-63 22 -76 -10 -30 -73 -194 -328 -212 -329 -8 -1 66 283 91 350 l19 48 -27
24 -26 25 -154 -74 c-85 -41 -156 -72 -158 -70 -5 5 81 108 143 171 74 75 85
90 78 109 -5 14 -28 16 -181 16 -101 0 -172 4 -169 9 3 5 77 39 164 76 155 66
181 79 170 90 -5 5 -108 26 -298 60 -110 20 -125 24 -117 31 3 3 84 18 180 34
194 32 227 39 227 49 0 3 -28 33 -63 66 -80 76 -140 145 -133 152 3 3 11 1 18
-4 7 -6 33 -15 58 -21 25 -6 76 -20 113 -31 l69 -20 -7 27 c-3 15 -15 45 -25
66 -11 22 -18 41 -17 42 1 1 37 -3 79 -10 l77 -12 -6 25 c-3 14 -21 76 -39
136 -19 61 -34 114 -34 119 0 6 51 -40 113 -102 63 -62 121 -112 130 -112 9 0
19 10 21 23 6 30 56 351 56 361 0 4 5 4 10 1 6 -3 10 -15 10 -27z m-1884 -6
c-6 -10 136 -8 152 2 20 12 93 -16 102 -39 15 -41 21 -150 11 -197 -6 -26 -23
-67 -38 -92 l-28 -46 -41 41 c-73 71 -159 61 -205 -26 -13 -24 -26 -41 -29
-37 -3 4 -14 12 -25 18 -19 10 -28 24 -54 84 -17 39 -26 109 -23 181 3 66 3
66 40 82 79 33 150 48 138 29z m-1581 -147 c35 -100 76 -182 154 -310 75 -122
95 -184 94 -290 -1 -108 -28 -178 -99 -255 -62 -67 -122 -100 -180 -100 -88 1
-189 77 -244 185 -28 56 -34 80 -38 151 -6 121 13 184 103 333 64 106 141 276
161 357 9 34 16 24 49 -71z m-347 -124 c3 -144 -6 -194 -35 -206 -7 -2 -24 12
-37 33 -21 32 -25 54 -30 163 -4 69 -4 133 0 143 5 13 16 16 53 14 l46 -3 3
-144z m722 8 c0 -127 -2 -144 -22 -179 -13 -22 -28 -40 -34 -40 -28 0 -44 79
-44 220 l0 140 50 0 50 0 0 -141z m906 -92 c5 -12 21 -40 33 -62 l23 -40 -23
-37 c-18 -28 -35 -40 -64 -48 -108 -28 -259 -105 -306 -157 -42 -45 -76 -112
-99 -193 -44 -157 -158 -747 -234 -1205 -61 -372 -63 -385 -41 -385 15 0 16
-7 10 -57 -4 -32 -8 -59 -9 -60 -2 -2 -35 14 -75 34 -72 37 -72 37 -67 73 61
406 240 1388 292 1593 54 219 130 312 343 423 41 21 102 62 135 91 34 29 63
53 66 53 3 0 10 -10 16 -23z m615 -265 c8 -31 8 -89 3 -172 l-9 -125 -54 93
-53 93 -37 -43 c-45 -53 -83 -89 -88 -84 -11 11 61 146 174 325 l15 23 19 -32
c11 -17 25 -53 30 -78z m-471 55 c0 -7 36 -73 80 -146 44 -74 80 -138 80 -143
0 -14 -52 26 -93 71 l-36 40 -43 -72 c-24 -40 -47 -81 -53 -92 -14 -29 -19
144 -5 209 14 69 50 157 61 150 5 -3 9 -11 9 -17z m-884 -37 c32 0 5 -220 -42
-353 -32 -88 -65 -147 -119 -212 -37 -44 -43 -58 -48 -111 -6 -69 -32 -127
-83 -184 -56 -62 -130 -96 -245 -115 -82 -13 -231 41 -301 109 -51 50 -98 148
-98 206 0 42 -5 53 -52 106 -95 109 -154 270 -173 478 l-7 76 51 0 c28 0 51
-3 51 -7 0 -26 41 -236 54 -279 21 -66 82 -161 135 -206 23 -19 69 -50 102
-68 72 -38 119 -85 169 -168 l38 -63 36 64 c41 75 78 109 176 168 154 91 225
217 260 464 16 111 15 108 51 101 18 -3 38 -6 45 -6z m1553 -70 c152 -49 168
-61 206 -143 18 -40 56 -133 84 -207 28 -74 94 -250 147 -390 89 -236 97 -262
102 -343 l5 -89 -48 51 c-40 43 -59 55 -123 75 -41 13 -69 26 -63 30 6 4 16 4
23 0 7 -4 8 -3 4 4 -9 15 -92 16 -101 2 -3 -5 -13 -10 -22 -10 -14 0 -14 3 2
20 24 26 132 80 161 80 21 0 23 2 12 25 -6 14 -15 25 -19 25 -21 0 -219 433
-219 478 0 7 -4 12 -10 12 -5 0 -10 -6 -10 -12 0 -9 -3 -8 -10 2 -7 12 -10 11
-16 -5 -7 -16 -9 -14 -20 16 -8 22 -14 29 -17 19 -46 -129 -50 -152 -44 -279
3 -69 11 -192 17 -274 7 -81 9 -154 6 -162 -3 -8 -14 -15 -25 -15 -21 0 -66
-47 -76 -80 -4 -11 -11 -18 -16 -15 -5 3 -6 0 -4 -8 3 -7 -1 -29 -9 -48 -12
-26 -15 -29 -16 -13 0 12 -6 24 -13 27 -9 3 -16 30 -20 74 -30 333 -37 416
-43 538 -3 77 -7 153 -9 168 -2 28 14 56 68 114 l29 31 -6 134 c-3 73 -8 148
-12 166 -4 19 -3 32 4 32 6 0 51 -13 101 -30z m-833 -12 c-3 -13 -9 -86 -12
-163 l-6 -140 30 -42 31 -41 -9 -154 c-11 -169 -16 -202 -30 -193 -6 3 -10 -5
-10 -19 0 -38 -57 -433 -81 -560 -18 -100 -73 -326 -84 -351 -3 -5 -3 8 0 30
12 100 36 466 46 732 10 236 10 325 -1 472 -8 100 -17 181 -22 181 -4 0 -8 -6
-8 -14 0 -8 -5 -18 -11 -22 -12 -7 -8 20 8 62 5 13 3 16 -10 11 -35 -13 -4 22
39 44 24 13 44 27 44 31 0 12 -7 10 -59 -22 -49 -31 -49 -31 -61 -103 -6 -40
-30 -175 -55 -302 -24 -126 -49 -264 -56 -305 -7 -41 -18 -92 -26 -114 -7 -21
-13 -49 -13 -61 0 -13 -4 -25 -10 -27 -5 -1 -11 -29 -12 -60 -1 -31 -5 -55 -8
-53 -3 2 -4 -12 -2 -31 3 -21 0 -34 -7 -34 -6 0 -11 -17 -12 -37 -1 -37 -16
-100 -18 -75 -1 6 -6 12 -11 12 -7 0 -9 -20 -6 -52 5 -51 5 -51 -8 12 -8 36
-14 54 -15 41 -1 -29 -61 -322 -67 -333 -3 -4 -14 -8 -26 -8 -19 0 -20 4 -13
58 20 165 165 939 229 1223 56 249 81 302 164 353 70 43 140 74 166 75 14 1
17 -4 12 -21z m524 -553 l0 -55 -180 0 -180 0 0 48 c0 27 3 52 7 55 3 4 84 7
180 7 l173 0 0 -55z m-2244 -302 c46 -92 119 -170 195 -208 116 -59 148 -90
225 -220 9 -16 14 -12 41 36 42 73 82 109 183 164 108 59 179 133 216 228 15
37 30 70 34 72 6 4 79 -10 85 -17 3 -2 -4 -32 -14 -66 -24 -77 -77 -173 -129
-232 -32 -37 -41 -57 -51 -114 -12 -69 -35 -123 -68 -162 -140 -164 -470 -147
-593 30 -28 42 -60 137 -60 181 0 11 -20 43 -44 71 -57 65 -101 140 -126 214
-30 90 -30 91 51 99 10 0 29 -26 55 -76z m2921 -265 c67 -31 129 -120 139
-200 6 -53 -28 -121 -64 -126 -25 -4 -27 3 -7 38 27 47 16 55 -23 17 -21 -20
-43 -37 -49 -37 -23 0 -24 21 -3 50 30 42 14 61 -19 22 -25 -30 -38 -36 -74
-33 -15 1 -13 7 13 39 21 27 32 54 36 88 6 47 5 52 -26 77 -24 20 -36 25 -45
17 -12 -10 -89 0 -102 14 -12 11 29 44 65 54 47 12 106 5 159 -20z m-3796
-125 c8 -9 55 -49 105 -89 103 -82 127 -114 151 -207 16 -62 16 -71 0 -169
-10 -57 -17 -113 -17 -126 0 -22 -1 -22 -22 -7 -149 104 -225 283 -240 563 -3
55 1 62 23 35z m6026 -105 c-8 -143 -26 -228 -68 -312 -35 -71 -53 -93 -132
-160 l-59 -50 4 76 c1 42 0 74 -4 71 -5 -2 -8 36 -8 86 0 135 22 187 119 277
42 39 90 85 106 102 17 16 34 30 39 31 5 0 6 -50 3 -121z m-5422 -134 c7 -102
5 -126 -14 -197 -12 -45 -35 -109 -52 -142 -34 -69 -120 -162 -139 -150 -24
15 -50 90 -50 145 0 80 25 182 60 248 29 54 163 212 180 212 4 0 11 -52 15
-116z m4938 -13 c27 -29 60 -76 73 -106 33 -72 57 -189 50 -247 -7 -62 -42
-132 -63 -124 -57 22 -141 137 -178 242 -25 72 -31 138 -27 282 l2 84 48 -40
c26 -22 69 -63 95 -91z m-1427 -15 c298 -222 464 -505 464 -791 0 -58 -2 -63
-24 -69 -29 -7 -42 -62 -31 -132 l6 -45 125 3 124 3 0 80 c0 77 -1 81 -29 100
-37 24 -30 41 7 19 l27 -16 -27 23 c-25 22 -58 84 -58 109 0 35 110 -33 133
-83 14 -28 19 -85 27 -274 5 -131 13 -279 16 -328 l7 -91 -36 -38 -37 -38 -42
25 -43 25 -3 129 -3 129 33 -4 33 -3 1 81 1 82 -36 -6 c-20 -3 -80 -6 -133 -6
l-98 0 0 -76 0 -76 40 4 40 4 0 -137 0 -137 -41 -16 c-38 -16 -42 -15 -68 4
-51 36 -53 50 -44 381 8 295 9 305 32 344 25 42 32 106 18 160 -5 18 -4 25 1
17 7 -11 10 -9 15 7 3 13 1 19 -5 15 -6 -4 -8 2 -3 16 5 17 4 21 -6 15 -9 -6
-11 -3 -6 8 4 10 1 28 -5 42 -9 21 -14 23 -26 12 -13 -10 -14 -9 -3 12 10 17
10 26 1 35 -6 6 -11 7 -10 1 7 -34 -4 -34 -20 -1 -11 21 -17 43 -13 49 4 6 1
7 -7 2 -9 -6 -12 -4 -8 7 4 8 2 21 -4 29 -7 11 -8 9 -4 -6 5 -17 4 -17 -12 4
-11 13 -18 34 -16 48 2 21 0 22 -14 11 -12 -10 -14 -10 -8 0 4 6 3 12 -2 12
-14 0 -65 70 -57 78 3 3 11 0 16 -8 9 -13 10 -13 6 0 -2 8 -11 15 -20 15 -8 0
-42 25 -74 56 -32 30 -89 81 -128 114 -38 32 -73 62 -76 68 -3 5 -9 8 -13 8
-24 -3 -27 1 -13 17 10 10 17 26 17 35 0 9 4 17 9 17 5 0 53 -33 107 -74z
m-2001 -281 c22 -4 63 -13 91 -22 l51 -15 -4 -81 c-5 -89 -17 -139 -37 -156
-9 -8 -15 1 -25 39 l-13 50 -39 -22 c-77 -43 -79 -47 -81 -215 l-3 -150 -30
25 c-16 14 -55 36 -85 50 -46 21 -70 25 -145 25 -50 0 -100 -5 -112 -11 -21
-12 -23 -9 -37 39 -33 109 -95 181 -195 227 -105 48 -253 39 -351 -23 -87 -55
-150 -169 -150 -273 l0 -57 -83 0 c-71 0 -91 -4 -149 -32 -79 -37 -151 -106
-180 -171 -13 -29 -23 -76 -26 -122 -4 -68 -1 -84 31 -165 19 -49 87 -250 151
-446 102 -312 121 -359 149 -387 36 -35 75 -52 118 -52 29 0 29 0 29 -61 0
-45 6 -71 21 -96 12 -19 20 -35 18 -37 -2 -1 -44 -17 -94 -36 -49 -18 -124
-48 -164 -67 l-75 -34 -29 29 -28 28 58 36 c32 20 91 52 131 72 39 20 72 40
72 44 -1 4 -37 31 -81 61 -44 30 -87 63 -94 75 -8 12 -70 188 -139 391 -68
204 -138 410 -155 458 -38 110 -46 184 -28 265 7 34 10 62 5 62 -11 0 -58 95
-58 117 0 10 22 43 49 75 38 44 52 71 65 124 9 37 24 81 32 98 20 39 177 275
184 276 3 0 2 -60 -3 -132 -7 -133 -29 -238 -48 -238 -6 0 -8 -4 -4 -9 3 -5 1
-12 -5 -16 -5 -3 -10 -14 -10 -24 0 -10 -9 -30 -21 -45 l-21 -26 49 30 c57 36
151 70 192 70 26 0 30 5 40 45 54 214 223 345 443 345 95 0 160 -15 238 -55
65 -33 160 -126 186 -184 17 -36 23 -41 54 -41 19 0 64 -5 99 -11 53 -8 73
-17 114 -51 l49 -42 -4 72 c-3 55 -8 75 -22 85 -18 13 -18 17 3 133 33 184 31
175 49 170 10 -3 35 -8 57 -11z m-2015 -120 c151 -111 210 -196 210 -299 0
-23 -10 -83 -23 -134 l-22 -94 -67 61 c-107 99 -158 208 -177 386 -7 55 -14
110 -16 123 -3 12 -3 22 0 22 3 0 46 -29 95 -65z m5915 -17 c-13 -148 -57
-279 -122 -364 -22 -30 -135 -124 -147 -124 -3 0 -6 17 -6 38 0 20 -5 73 -11
118 -22 153 22 229 201 353 47 32 87 59 89 60 1 1 0 -36 -4 -81z m-657 30 c17
-24 61 -77 97 -118 79 -88 102 -130 116 -208 6 -35 24 -77 45 -109 40 -62 41
-70 13 -125 -37 -73 -39 -73 -113 -6 -36 33 -77 78 -91 101 -39 67 -85 221
-95 315 -13 121 -16 192 -9 192 3 0 20 -19 37 -42z m-3962 -214 c22 -9 52 -28
67 -42 31 -29 77 -111 77 -137 0 -19 -16 -20 -24 0 -3 9 -14 13 -28 11 -13 -2
-27 0 -33 4 -23 17 -147 61 -175 62 -39 1 -72 -29 -112 -103 l-31 -56 -40 15
c-39 16 -39 16 -33 59 16 122 108 202 232 203 34 0 79 -7 100 -16z m923 -166
l61 -55 0 -81 c0 -90 9 -81 -97 -97 l-43 -7 1 169 c0 101 4 160 9 147 4 -11
36 -45 69 -76z m369 -90 c11 -69 26 -155 73 -413 54 -298 88 -521 94 -632 7
-106 2 -183 -10 -172 -12 13 -235 1205 -235 1260 0 9 35 27 56 28 6 1 16 -32
22 -71z m2672 -128 c105 -147 107 -151 129 -227 10 -37 24 -81 30 -96 6 -16 9
-33 5 -38 -3 -5 0 -9 5 -9 6 0 11 -4 11 -10 0 -20 -21 -9 -87 42 -86 66 -106
90 -143 163 -23 46 -32 83 -40 160 -6 55 -12 116 -15 135 l-5 35 17 -25 c10
-13 52 -72 93 -130z m-3433 88 c47 -22 137 -113 128 -128 -3 -6 -21 -10 -38
-10 -36 0 -269 -31 -457 -61 -139 -21 -408 -59 -424 -59 -6 0 -4 5 4 10 12 8
12 10 -5 10 -17 0 -17 2 -5 10 11 7 2 9 -30 8 -25 0 -88 3 -141 7 -116 9 -154
-1 -202 -54 -19 -21 -36 -43 -38 -49 -2 -7 -25 -15 -51 -18 l-48 -7 0 40 c0
52 43 135 88 173 56 46 120 63 217 58 67 -3 91 -9 129 -32 26 -15 50 -34 53
-42 3 -8 9 -14 14 -14 5 0 2 11 -6 24 l-16 24 38 -5 c41 -5 269 43 483 101 69
19 139 37 155 39 46 7 105 -3 152 -25z m-1840 -79 c147 -84 195 -142 218 -262
8 -41 21 -93 28 -116 8 -22 14 -41 12 -41 -14 0 -65 24 -65 31 0 5 -7 9 -15 9
-21 0 -115 48 -144 74 -36 33 -79 128 -101 224 -30 130 -31 132 -26 132 3 0
45 -23 93 -51z m5893 49 c0 -2 -7 -41 -15 -88 -36 -205 -80 -272 -227 -344
-51 -25 -93 -44 -94 -43 -4 4 27 162 42 213 9 32 30 70 57 100 47 54 237 183
237 162z m-2477 -188 c31 -91 67 -210 82 -265 15 -55 33 -119 41 -142 17 -52
48 -232 41 -239 -3 -3 -8 10 -12 28 -4 18 -27 93 -51 166 -68 207 -180 639
-161 622 3 -3 30 -79 60 -170z m-1153 -77 c0 -16 -4 -66 -10 -113 -8 -74 -40
-371 -56 -527 -6 -62 5 -56 -169 -78 -113 -13 -348 -46 -570 -80 -55 -9 -172
-24 -260 -36 -183 -23 -335 -46 -357 -54 -10 -4 -19 3 -26 22 -17 43 -136 413
-175 544 l-34 116 171 23 c94 12 243 33 331 47 88 13 297 44 465 69 168 24
377 55 465 68 219 33 225 33 225 -1z m2739 -230 c71 -73 141 -192 118 -204 -7
-4 -61 -18 -122 -33 -60 -15 -120 -31 -132 -36 -20 -8 -25 -5 -39 21 -15 29
-14 32 8 52 72 68 78 83 78 178 0 58 4 89 11 89 6 0 41 -30 78 -67z m-772 45
c0 -7 1 -47 1 -88 l2 -74 61 -59 c54 -53 60 -62 54 -89 -4 -16 -13 -32 -20
-34 -7 -3 -62 2 -122 11 -130 20 -143 22 -165 24 -23 1 -15 45 23 127 33 71
81 133 128 169 41 29 39 29 38 13z m-4124 -122 c94 -52 145 -109 204 -228 28
-57 54 -113 57 -125 7 -21 7 -21 -56 -7 -83 19 -161 58 -193 96 -41 49 -92
158 -114 246 -27 104 -27 108 8 79 16 -13 59 -41 94 -61z m5718 -2 c-51 -197
-108 -288 -211 -333 -38 -17 -170 -53 -170 -46 0 1 9 27 20 59 53 156 136 258
280 345 52 31 96 56 98 55 2 -1 -6 -37 -17 -80z m-1141 -175 c91 -94 67 -220
-50 -259 -74 -25 -157 20 -181 98 -30 100 45 202 149 202 36 0 47 -6 82 -41z
m475 -100 c11 -50 -15 -189 -40 -217 -10 -11 -19 -11 -49 2 -24 10 -35 20 -30
27 4 7 3 9 -3 6 -6 -4 -52 10 -103 30 l-92 37 7 35 c4 20 8 38 10 40 5 5 257
69 277 70 11 1 19 -10 23 -30z m-926 -52 c78 -10 95 -16 102 -32 17 -44 10
-53 -78 -101 -49 -26 -108 -60 -132 -76 -24 -16 -44 -28 -45 -26 -37 68 -66
166 -66 222 l0 39 63 -7 c34 -4 104 -13 156 -19z m556 -178 c-3 -5 1 -6 9 -3
22 8 88 -15 80 -28 -4 -6 -2 -8 4 -4 6 3 47 -11 92 -32 l81 -38 -25 -29 c-14
-17 -26 -33 -26 -37 0 -4 -30 -28 -67 -55 -38 -26 -71 -51 -74 -55 -3 -5 -25
42 -49 104 -24 62 -47 117 -52 123 -12 14 -10 63 5 68 16 6 29 -2 22 -14z
m-339 -13 c6 -15 -71 -263 -86 -280 -10 -11 -124 57 -179 106 -44 40 -48 48
-28 48 6 0 68 32 137 70 69 38 131 70 138 70 7 0 15 -7 18 -14z m-2419 -46
c39 -24 61 -59 43 -70 -7 -5 -47 -13 -88 -19 -41 -6 -85 -14 -98 -17 -21 -5
-24 -3 -24 19 0 14 12 40 27 57 44 53 88 62 140 30z m2633 -57 c50 -130 71
-196 65 -202 -9 -9 -245 -14 -245 -5 0 3 18 65 40 135 l41 129 39 0 c38 0 39
-1 60 -57z m-2998 -104 c-7 -6 -115 -29 -139 -29 -7 0 -13 10 -13 23 -1 12 -9
38 -20 57 l-18 35 91 15 92 15 7 -55 c3 -30 3 -58 0 -61z m-402 44 c19 -5 57
-60 65 -94 6 -23 2 -27 -39 -43 -25 -10 -50 -15 -56 -11 -5 3 -10 2 -10 -2 0
-5 -19 -14 -42 -20 -36 -10 -46 -9 -60 4 -37 33 -30 106 14 147 23 21 75 37
98 29 8 -3 22 -7 30 -10z"/>
<path d="M6890 7300 c-73 -16 -163 -66 -213 -119 -129 -137 -156 -319 -72
-487 101 -205 347 -289 549 -187 159 80 254 265 226 440 -14 84 -35 133 -88
200 -96 121 -259 182 -402 153z m159 -146 c113 -33 194 -149 193 -274 -1 -79
-20 -127 -73 -185 -126 -136 -341 -111 -439 51 -32 53 -35 65 -35 134 1 140
70 232 210 276 54 17 82 17 144 -2z"/>
<path d="M4290 4186 l-65 -11 0 -95 c0 -79 2 -94 15 -91 8 1 45 8 83 13 37 6
67 15 68 22 0 6 6 46 13 89 7 42 10 79 8 82 -7 7 -47 4 -122 -9z"/>
<path d="M3955 4140 c-60 -9 -113 -15 -117 -13 -9 5 -11 -148 -3 -169 5 -12
15 -12 68 -2 34 7 91 16 127 20 l65 6 -3 89 c-2 61 -7 89 -15 88 -7 -1 -61 -9
-122 -19z"/>
<path d="M3555 4081 l-110 -16 2 -84 c1 -45 3 -84 5 -86 2 -2 59 4 126 13 120
17 122 17 122 43 0 65 -14 149 -24 148 -6 -1 -60 -9 -121 -18z"/>
<path d="M3225 4035 c-38 -7 -96 -15 -128 -19 -37 -5 -60 -13 -64 -22 -5 -13
21 -141 31 -151 2 -2 60 4 129 14 l126 18 -6 80 c-3 44 -8 83 -12 86 -3 3 -37
1 -76 -6z"/>
<path d="M4335 3890 c-16 -4 -49 -8 -71 -9 -23 0 -44 -7 -46 -13 -7 -18 -10
-166 -4 -176 7 -12 145 10 150 24 10 26 18 184 10 183 -5 -1 -22 -5 -39 -9z"/>
<path d="M4050 3850 c-14 -4 -49 -10 -78 -14 -42 -5 -52 -4 -47 6 4 7 0 5 -8
-4 -8 -10 -28 -18 -46 -18 l-31 0 0 -90 0 -90 38 6 c20 3 75 11 122 17 l85 12
3 84 c2 46 -1 87 -5 91 -4 4 -19 4 -33 0z"/>
<path d="M3620 3794 c-36 -7 -86 -15 -111 -19 l-46 -6 3 -47 c2 -26 6 -67 10
-90 5 -39 8 -43 27 -39 12 3 64 11 114 18 l93 12 -5 85 c-2 47 -8 88 -12 92
-4 4 -37 1 -73 -6z"/>
<path d="M3215 3739 c-38 -6 -83 -11 -99 -12 -28 -2 -28 -2 -22 -52 8 -63 10
-74 24 -107 10 -24 14 -26 42 -18 16 5 67 12 111 16 l81 7 -6 67 c-4 38 -3 70
1 72 4 3 2 3 -5 2 -7 -2 -12 4 -10 14 4 21 -20 23 -117 11z"/>
</g>
</svg>
